<svg xmlns:inkscape="http://www.inkscape.org/namespaces/inkscape" xmlns:sodipodi="http://sodipodi.sourceforge.net/DTD/sodipodi-0.dtd" xmlns="http://www.w3.org/2000/svg" xmlns:svg="http://www.w3.org/2000/svg" viewBox="0.0 0.0 119.461 24.0005" fill="none" version="1.1" id="svg9" sodipodi:docname="pearson.svg" inkscape:version="1.4 (86a8ad7, 2024-10-11)" width="705.0442387827708" height="141.83507147387772">
  <defs id="defs9"/>
  <sodipodi:namedview id="namedview9" pagecolor="#ffffff" bordercolor="#000000" borderopacity="0.25" inkscape:showpageshadow="2" inkscape:pageopacity="0.0" inkscape:pagecheckerboard="0" inkscape:deskcolor="#d1d1d1" inkscape:zoom="0.70710678" inkscape:cx="206.47518" inkscape:cy="-214.25335" inkscape:window-width="1245" inkscape:window-height="981" inkscape:window-x="665" inkscape:window-y="0" inkscape:window-maximized="0" inkscape:current-layer="svg9"/>
  <path d="m 6.67175,2.11133 v 0.00379 c 0,0 0.46656,3.57134 0.46656,9.66728 0,6.096 -0.46656,9.6711 -0.46656,9.6667 v 0.0038 c 2.38457,-2.531 3.84735,-5.9299 3.84735,-9.6698 v -0.0019 c 0,-3.73994 -1.46278,-7.13894 -3.84735,-9.66987 z" fill="white" id="path1" style="fill:#0d004d;fill-opacity:1"/>
  <path d="M 6.75595,8.51326 C 6.25593,6.62311 5.31966,4.84218 4.02289,3.22412 2.91047,1.97475 1.56004,0.88447 0.029673,0 1.51395,2.34596 2.51273,6.73359 2.51273,11.7595 c 0,5.0259 -0.99689,9.4034 -2.4780052,11.7519 C 0.0233607,23.5379 0.0113641,23.5644 0,23.5909 c 0.85357,-0.4911 1.65158,-1.0461 2.3833,-1.6572 2.52599,-2.404 4.18767,-5.2891 4.65423,-8.4274 0.06692,-0.5593 0.10165,-1.1288 0.10165,-1.7064 0,-1.132 -0.13259,-2.23171 -0.3826,-3.28727 z" fill="white" id="path2" style="fill:#0d004d;fill-opacity:1"/>
  <path d="m 95.5237,7.20117 c -4.7496,0 -8.5338,3.72033 -8.5338,8.40213 0,4.6818 3.7722,8.387 8.5218,8.387 4.7493,0 8.5213,-3.7089 8.5213,-8.3901 0,-4.6812 -3.76,-8.3984 -8.51,-8.3984 z M 95.5123,20.2182 c -2.7293,0 -4.4124,-2.1218 -4.4124,-4.6149 0,-2.493 1.6838,-4.618 4.4124,-4.618 2.7287,0 4.4124,2.1218 4.4124,4.6149 0,2.493 -1.6837,4.618 -4.4124,4.618 z" fill="white" id="path3" style="fill:#0d004d;fill-opacity:1"/>
  <path d="m 35.7884,7.20312 c -4.7105,0 -8.1159,3.80308 -8.1165,8.42428 0,4.5214 3.2589,8.3731 7.9908,8.3731 3.4143,0 6.5224,-2.0474 7.6967,-5.2361 h -4.1441 c -0.6421,0.8535 -1.8997,1.5783 -3.5267,1.5783 -2.5929,0 -3.7716,-1.8511 -3.908,-3.2646 h 11.8515 c 0.0695,-0.4551 0.1073,-1.2108 0.1073,-1.7361 0,-4.8946 -3.6011,-8.13888 -7.951,-8.13888 z m -3.9983,6.78978 c 0,-1.7519 1.7273,-3.1711 3.8575,-3.1711 2.1301,0 3.8587,1.4198 3.8587,3.1711 h -7.7168 z" fill="white" id="path4" style="fill:#0d004d;fill-opacity:1"/>
  <path d="m 112.226,7.20312 c -4,0 -7.233,3.23108 -7.233,7.23238 v 9.1553 h 4.056 l 10e-4,-9.1497 c 0,-2.0675 1.468,-3.3851 3.17,-3.3851 1.7,0 3.16,1.3277 3.158,3.3959 l -0.008,9.1389 h 4.091 V 14.438 c 0,-4.0013 -3.234,-7.23488 -7.235,-7.23488 z" fill="white" id="path5" style="fill:#0d004d;fill-opacity:1"/>
  <path d="m 73.9591,7.71386 c -0.4476,-0.2096 -1.4192,-0.51074 -2.5285,-0.51074 -3.1977,0 -4.4408,2.46086 -4.5785,2.73359 v -2.3245 h -3.8398 l -0.0107,15.97669 4.0532,0.0019 v -10.454 c 0.1111,-0.2159 1.2488,-2.1565 3.6043,-2.1565 0.8807,0 1.6825,0.2714 1.8858,0.3706 l 1.4148,-3.63767 z" fill="white" id="path6" style="fill:#0d004d;fill-opacity:1"/>
  <path d="m 53.0912,7.20117 c -4.7155,0 -8.5496,3.67933 -8.5496,8.47223 0,4.488 3.3619,8.3352 7.9056,8.3258 2.2874,-0.0045 4.0918,-0.9849 5.0299,-2.406 v 1.9975 h 4.1063 L 61.5802,15.3925 C 61.5783,10.7731 57.7385,7.20117 53.0918,7.20117 Z M 53.0634,20.2719 c -2.7292,0 -4.413,-2.1534 -4.413,-4.6465 0,-2.493 1.6844,-4.6464 4.413,-4.6464 2.7287,0 4.4131,2.1534 4.4131,4.6464 0,2.4931 -1.6844,4.6465 -4.4131,4.6465 z" fill="white" id="path7" style="fill:#0d004d;fill-opacity:1"/>
  <path d="m 81.2729,14.0529 c -2.6945,-0.5733 -3.7722,-0.8094 -3.7722,-1.7254 0,-1.0366 1.3814,-1.5764 2.8391,-1.5764 2.2135,0 3.8499,1.2431 4.0317,1.3813 L 86.3918,9.16777 C 85.3577,8.47459 83.3911,7.20312 80.3032,7.20312 c -4.2868,0 -6.7793,2.44066 -6.7793,5.16228 0,2.8649 2.7608,4.2184 5.9289,4.8857 2.4237,0.5107 3.1662,0.7071 3.1662,1.5625 0,1.1667 -1.3814,1.6376 -2.7874,1.6376 -2.1687,0 -3.968,-1.1205 -5.0602,-2.2891 L 72.515,21.092 c 0.9413,0.8952 3.3783,2.9072 7.2478,2.9072 3.8695,0 6.9333,-2.2007 6.9333,-4.9293 0,-3.3005 -2.257,-4.3447 -5.4232,-5.0183 z" fill="white" id="path8" style="fill:#0d004d;fill-opacity:1"/>
  <path d="m 20.924,0 h -8.0029 l -0.0025,23.5909 h 4.0273 l 0.0031,-8.5 h 3.975 c 4.682,0 7.814,-3.2329 7.814,-7.54544 C 28.738,3.23296 25.606,0 20.924,0 Z M 20.4183,11.2506 H 16.949 V 3.84028 h 3.4693 c 2.7621,0 4.211,1.48233 4.211,3.70518 0,2.22286 -1.4489,3.70514 -4.211,3.70514 z" fill="white" id="path9" style="fill:#0d004d;fill-opacity:1"/>
</svg>